<?xml version="1.0" standalone="no"?>
<!DOCTYPE svg PUBLIC "-//W3C//DTD SVG 20010904//EN"
 "http://www.w3.org/TR/2001/REC-SVG-20010904/DTD/svg10.dtd">
<svg version="1.0" xmlns="http://www.w3.org/2000/svg"
 width="700.000000pt" height="700.000000pt" viewBox="0 0 700.000000 700.000000"
 preserveAspectRatio="xMidYMid meet">
<metadata>
Created by potrace 1.14, written by Peter Selinger 2001-2017
</metadata>
<g transform="translate(0.000000,700.000000) scale(0.100000,-0.100000)"
fill="#000000" stroke="none">
<path d="M3278 6996 c-1 -2 -39 -6 -83 -10 -114 -8 -228 -25 -420 -61 -134
-25 -428 -116 -600 -185 -107 -43 -335 -154 -413 -202 -34 -21 -67 -38 -72
-38 -6 0 -10 -4 -10 -10 0 -5 -5 -10 -11 -10 -14 0 -141 -85 -276 -187 -503
-376 -908 -906 -1143 -1493 -57 -142 -117 -327 -146 -450 -18 -79 -54 -254
-59 -290 -3 -25 -8 -56 -11 -70 -5 -29 -10 -70 -21 -190 -15 -164 -8 -589 12
-711 2 -13 6 -46 10 -74 9 -76 16 -116 25 -160 5 -22 11 -53 14 -70 9 -49 13
-66 36 -155 21 -85 73 -257 89 -295 5 -11 26 -65 46 -120 200 -527 569 -1033
1032 -1417 82 -68 327 -248 337 -248 3 0 40 -22 83 -48 193 -120 466 -246 693
-321 113 -36 290 -87 344 -97 12 -2 32 -6 46 -9 253 -53 432 -70 725 -70 235
0 352 8 518 35 40 6 83 13 97 16 88 14 206 41 330 76 972 274 1774 951 2214
1871 31 65 56 120 56 123 0 3 8 24 19 47 20 44 75 198 110 307 42 132 107 439
126 595 27 236 28 620 0 850 -113 942 -623 1816 -1391 2387 -486 361 -1094
601 -1679 664 -27 3 -63 8 -80 10 -34 6 -541 14 -547 10z m357 -540 c117 -5
312 -25 390 -40 712 -142 1268 -463 1737 -1003 14 -17 57 -71 94 -119 248
-325 422 -690 519 -1089 37 -152 37 -155 62 -325 18 -125 24 -532 11 -670 -51
-513 -238 -1009 -539 -1432 -38 -53 -74 -102 -81 -110 -7 -7 -31 -35 -53 -63
-22 -27 -47 -57 -55 -66 -199 -211 -317 -318 -485 -438 -55 -39 -105 -75 -112
-81 -7 -5 -15 -10 -18 -10 -4 0 -25 -13 -48 -28 -70 -47 -249 -142 -367 -195
-175 -79 -485 -173 -660 -201 -19 -3 -46 -8 -60 -10 -35 -6 -112 -16 -200 -26
-77 -8 -549 -6 -586 3 -12 3 -45 8 -75 12 -73 8 -246 42 -344 66 -483 122
-957 386 -1307 727 -48 47 -91 88 -95 91 -14 10 -136 153 -195 226 -203 254
-377 580 -481 900 -35 107 -79 274 -91 345 -3 19 -8 46 -11 60 -3 14 -8 41
-11 60 -3 19 -7 46 -10 60 -27 160 -26 639 1 805 11 65 15 91 19 111 2 12 7
37 10 55 25 151 119 453 192 619 30 67 117 236 157 305 81 141 258 384 342
471 11 12 45 48 76 80 235 246 507 447 809 597 91 45 184 90 208 99 126 52
384 132 492 151 14 3 36 8 50 11 104 24 241 41 410 51 69 4 126 8 128 10 2 2
11 1 20 -1 9 -1 80 -5 157 -8z"/>
<path d="M3865 5374 c-429 -52 -803 -269 -1057 -614 -30 -41 -60 -85 -67 -97
-6 -13 -19 -23 -29 -23 -17 0 -180 -40 -237 -58 -203 -65 -418 -198 -582 -360
-106 -105 -128 -131 -205 -247 -162 -244 -251 -536 -252 -825 0 -63 11 -213
19 -250 3 -14 8 -38 11 -55 76 -424 377 -833 765 -1043 261 -141 593 -211 859
-180 36 4 85 10 110 12 55 7 183 39 265 68 290 101 550 299 738 562 33 44 60
82 61 83 1 1 17 5 36 8 227 39 466 144 660 288 77 58 247 229 306 309 221 302
326 682 290 1054 -4 39 -9 82 -11 95 -3 13 -8 38 -11 54 -59 331 -267 676
-533 886 -112 88 -109 86 -201 139 -285 163 -617 232 -935 194z m325 -538 c25
-4 83 -19 130 -33 259 -77 478 -260 598 -499 31 -62 85 -204 77 -204 -2 0 0
-11 5 -24 22 -58 31 -229 18 -341 -13 -111 -86 -323 -131 -380 -4 -5 -21 -30
-37 -55 -134 -208 -396 -373 -660 -416 -58 -10 -242 -10 -300 -1 -226 35 -460
165 -596 330 -21 26 -49 59 -60 74 -35 42 -110 193 -134 268 -34 108 -48 209
-45 335 10 409 271 763 665 902 136 48 330 66 470 44z m-1674 -958 c0 -171 8
-242 39 -368 36 -145 49 -182 111 -315 128 -278 376 -534 664 -687 62 -32 196
-88 250 -104 l24 -7 -36 -31 c-45 -39 -156 -105 -228 -135 -295 -126 -647 -92
-924 87 -88 58 -206 173 -266 261 -40 60 -111 199 -124 242 -41 146 -50 202
-49 324 0 88 10 175 24 212 5 13 6 23 4 23 -8 0 46 142 78 205 83 165 218 308
387 408 25 15 45 27 45 27 1 0 1 -64 1 -142z"/>
</g>
</svg>
